<svg width="197" height="75" viewBox="0 0 197 75" fill="none" xmlns="http://www.w3.org/2000/svg">
<path d="M6.78736e-05 8.72679L10.0747 8.72675C10.141 9.38615 11.4113 17.0519 13.8856 31.7234H15.9733V33.9901H13.4547V31.7234H9.90887V33.9901H13.4547V44.5819H14.5815V50.0631H17.3652V41.9853H18.3925V33.9901H20.414V31.7234H18.8233C21.3198 17.0515 22.6013 9.38594 22.6675 8.72675H32.7421C29.0968 28.4266 27.2741 38.469 27.2741 38.8534V49.1152H24.4904V51.1759H26.5782V57.193H22.8335V67.7848H11.0356C10.9031 67.7848 10.5827 66.2737 10.0746 63.2515H13.1235V60.7787H9.70994C9.57738 60.7787 9.26807 59.1851 8.78202 55.9981C8.53901 55.0365 5.61175 39.2784 6.78736e-05 8.72679ZM23.3636 57.646H24.391C24.6782 57.646 24.877 57.852 24.9875 58.2641L24.7555 58.9235C24.8659 58.9235 24.9433 59.2807 24.9874 59.9951H24.656C24.5456 59.9951 24.4572 59.7066 24.3909 59.1296H23.7944V59.9951H23.3636V57.646ZM23.7943 58.0578V58.5936H24.3245C24.4349 58.5936 24.4902 58.5249 24.4902 58.3875V58.2639C24.4902 58.1265 24.4349 58.0578 24.3245 58.0578L23.7943 58.0578ZM23.3636 60.8605H24.7555V61.1902C24.7555 61.3275 24.6892 61.3962 24.5567 61.3962H23.7944V61.7259H24.5567V62.2617H23.7944V63.2508H23.3636L23.3636 60.8605ZM23.3636 64.1161H23.7944V66.5065H23.3636V64.1161Z" fill="white"/>
<path d="M31.0268 17.4892C31.0268 37.9601 27.9578 64.6765 48.6036 72.3097C58.6476 76.1263 65.9015 69.187 70.6445 64.6765C77.3405 58.7781 87.1054 60.5129 92.1274 68.4931C97.4283 76.8203 99.6603 75.0854 100.218 70.5749C100.776 66.7583 99.3813 59.125 94.3594 51.8388C94.9174 54.2675 93.8014 56.6963 90.7324 59.125C93.8014 55.3084 93.8014 52.1857 92.4064 49.063C88.7794 44.5525 85.1524 42.8177 80.4094 42.1237C82.0834 43.5116 82.6414 45.9403 82.0834 50.4509C81.8044 44.5525 79.8515 42.4707 76.7825 41.7768C70.9235 41.7768 68.1335 43.1646 63.1116 45.2464C66.1805 45.9403 68.1335 48.0221 68.1335 53.9205C66.7385 47.3282 63.9486 46.6343 59.7636 46.6343C46.6507 51.1448 47.7667 38.3071 48.3246 16.1013C48.3246 13.6726 47.7667 11.5908 46.6507 9.85594L50.2776 2.2227C51.1146 0.834842 49.4406 -0.206054 48.8826 1.18181L45.2557 8.12112C42.1867 5.34539 38.0017 4.99843 34.6537 7.77415L31.3058 1.18181C30.7478 -0.206054 29.0738 0.834842 29.9108 2.2227L33.2587 9.16201C31.8638 11.2438 31.0268 13.6726 31.0268 17.4892ZM43.0237 31.7148C41.0707 34.4905 36.6067 34.4905 34.9327 31.7148C37.4437 32.4087 40.5127 32.4087 43.0237 31.7148ZM43.0237 18.1831C44.1397 18.1831 45.2557 19.571 45.2557 21.6528C45.2557 23.3876 44.1397 25.1224 43.0237 25.1224C42.1867 25.1224 41.0707 23.3876 41.0707 21.6528C41.0707 19.571 42.1867 18.1831 43.0237 18.1831ZM34.9327 18.1831C36.0487 18.1831 36.8857 19.571 36.8857 21.6528C36.8857 23.3876 36.0487 25.1224 34.9327 25.1224C33.8167 25.1224 32.9797 23.3876 32.9797 21.6528C32.9797 19.571 33.8167 18.1831 34.9327 18.1831Z" fill="white"/>
<path d="M98.2796 8.76929H121.675V18.413C121.675 18.5504 121.62 18.6191 121.51 18.6191H107.625V31.4358H120.085V31.5183C120.085 31.9029 120.03 33.991 119.919 37.7825C119.875 37.7825 119.853 37.8237 119.853 37.9062H120.416V40.8734H109.613V52.9897H106.73V54.1848H109.613V57.8526H121.841V59.2538H120.88V66.5073H106.266V67.7848H99.3069V46.6431H98.2796V39.1837H90.6909V37.9062H98.2796L98.2796 8.76929ZM98.3457 37.9042V39.1818H102.256V37.9042H98.3457ZM110.342 54.8837L110.905 54.8837V55.8728H110.972C110.972 55.6804 111.215 55.3507 111.701 54.8837H112.264L111.469 55.9552L112.33 57.5624H111.767C111.347 56.8206 111.115 56.4497 111.071 56.4497C110.961 56.4772 110.905 56.5459 110.905 56.6558V57.5625H110.342L110.342 54.8837ZM113.126 54.8837H114.252C114.606 54.8837 114.849 55.1447 114.981 55.6667C114.981 55.7492 114.871 55.9827 114.65 56.3674C114.805 56.3674 114.915 56.7658 114.981 57.5625H114.584C114.473 57.5625 114.385 57.2328 114.319 56.5734H113.689V57.5625H113.126L113.126 54.8837ZM116.738 54.8837L117.036 54.8837C117.522 54.8837 117.821 55.2821 117.931 56.0788V56.4497C117.931 56.6695 117.854 56.903 117.699 57.1503V57.2739C117.854 57.2739 117.931 57.3289 117.931 57.4388C117.931 57.5487 117.854 57.6586 117.699 57.7685C117.611 57.7685 117.522 57.6586 117.434 57.4388L117.036 57.5625H116.738C116.208 57.5625 115.909 57.0679 115.843 56.0789C115.998 55.2821 116.296 54.8837 116.738 54.8837ZM116.406 56.0788V56.3674C116.406 56.8344 116.594 57.068 116.97 57.068H117.036V56.9443H116.904V56.8619C116.904 56.752 116.981 56.6559 117.135 56.5734L117.367 56.7383C117.367 56.7108 117.39 56.5185 117.434 56.1613C117.412 55.6393 117.202 55.3782 116.804 55.3782C116.539 55.4607 116.406 55.6942 116.406 56.0788ZM113.689 55.4606V56.0787H114.252C114.363 56.0787 114.418 56.01 114.418 55.8727V55.6666C114.418 55.5293 114.363 55.4606 114.252 55.4606L113.689 55.4606ZM121.377 59.8288H121.841V59.9524C121.841 61.1338 121.764 61.7245 121.609 61.7245C121.454 61.7245 121.377 61.2987 121.377 60.447L121.377 59.8288ZM121.377 61.8072H121.841V62.4253H121.377V61.8072ZM124.227 8.80727L136.455 8.80719C143.613 8.80719 148.186 11.1013 150.175 15.6897C151.346 18.602 151.931 22.2971 151.931 26.7758C151.865 27.5726 151.832 28.3831 151.832 29.2073H158.625V32.0509H151.6V31.9685C151.71 30.2651 151.766 29.3447 151.766 29.2074H147.822V32.051L151.6 32.0509L151.6 42.0652H143.779V45.527H143.713C137.682 45.5819 134.269 45.6094 133.473 45.6094V50.8022H131.816V60.0336H132.744V67.7812H125.321V64.1546H124.294V61.1049C124.294 57.5882 124.272 51.86 124.227 43.9195H128.734V40.911H124.227L124.227 8.80727ZM133.473 18.8215V35.5946H136.29V33.1631H141.89C142.641 32.3114 143.017 29.9211 143.017 25.9924C143.017 22.2284 142.332 20.0716 140.962 19.5222C140.454 19.0551 139.294 18.8215 137.483 18.8215L133.473 18.8215ZM152.163 32.6705H152.395C152.66 32.9453 152.793 33.2062 152.793 33.4535L153.323 32.6705H153.654V32.8354C153.235 33.5497 153.025 34.2365 153.025 34.8959H152.793C152.682 34.8959 152.605 34.5113 152.561 33.742C152.472 33.742 152.285 33.4123 151.997 32.7529L152.163 32.6705ZM152.064 35.5963H153.489V36.0908H153.025V37.6569C153.025 37.7942 152.969 37.8629 152.859 37.8629H152.693C152.605 37.8629 152.561 37.7942 152.561 37.6569V36.0908H152.064L152.064 35.5963ZM176.056 8.72709C182.861 8.72709 187.334 11.6943 189.477 17.6289C190.692 20.5137 191.3 26.0775 191.3 34.3197V34.6082H187.787V36.5864H191.3V57.8927H188.98V65.5994H184.374V67.7836H168.269V65.5994H166.28V57.8927H162.138V51.8757H164.623V48.7436H162.138V51.8757H156.272V48.7436H160.713C160.669 43.9082 160.647 40.2127 160.647 37.6574V32.6297C160.647 23.2881 161.917 17.0382 164.458 13.8782C166.799 10.4439 170.665 8.72709 176.056 8.72709ZM170.257 29.0851L170.323 29.0852L170.257 29.25V34.6074H166.678V36.5856H170.257C170.191 45.0751 170.157 51.4904 170.157 55.8312V57.8918H178.111V54.6361H181.756V54.5537C181.756 50.5424 181.734 44.9513 181.69 37.7806C181.69 37.4784 181.712 36.709 181.756 35.4727C181.756 27.6972 181.391 22.9306 180.662 21.1721C179.911 19.4687 178.53 18.617 176.52 18.617H175.327C172.941 18.617 171.461 19.9221 170.887 22.5321C170.621 23.8509 170.411 26.0356 170.257 29.0851ZM191.3 34.6082L197 34.6075V36.5857L191.3 36.5864V34.6082ZM191.698 36.9564H191.863C191.996 36.9564 192.095 37.3548 192.162 38.1515C192.25 38.1515 192.382 37.7532 192.559 36.9564H192.791C192.924 36.9564 193.034 37.3823 193.123 38.234H193.189L193.421 36.9564H193.818V37.0801C193.575 38.5087 193.399 39.223 193.288 39.223H192.957C192.957 39.1131 192.88 38.6873 192.725 37.9455H192.659C192.57 38.7972 192.46 39.223 192.327 39.223H191.996C191.841 38.3713 191.687 37.657 191.532 37.0801L191.698 36.9564ZM191.862 39.9236H192.16C192.293 39.9236 192.459 40.3906 192.657 41.3247H192.724C192.724 41.1874 192.823 40.7203 193.022 39.9236H193.585V42.1902H193.188V41.0363H193.121C192.967 41.8056 192.834 42.1902 192.724 42.1902H192.492C192.337 41.5858 192.26 41.2286 192.26 41.1187H192.16C192.16 41.833 192.105 42.1902 191.995 42.1902H191.696V40.1296C191.719 39.9923 191.774 39.9236 191.862 39.9236ZM191.598 42.8911L191.93 42.8911C192.195 43.0835 192.327 43.317 192.327 43.5918C192.349 43.5918 192.504 43.3583 192.791 42.8912H193.123V43.0972L192.659 43.9627C192.659 44.0176 192.835 44.3885 193.189 45.0754V45.1578H192.791L192.327 44.4572C192.151 44.9242 192.018 45.1578 191.93 45.1578H191.532C191.907 44.471 192.095 44.0726 192.095 43.9627C191.764 43.3582 191.598 43.001 191.598 42.8911ZM191.862 45.8582H192.326C192.856 45.8582 193.121 46.0918 193.121 46.5589V46.6413L192.956 46.9298C193.044 46.9298 193.121 47.0397 193.188 47.2594V47.6304C193.077 47.96 192.812 48.1249 192.392 48.1249H191.696V46.0643C191.719 45.927 191.774 45.8582 191.862 45.8582ZM192.161 46.3528V46.7649H192.658V46.3528H192.161ZM179.867 46.3528H180.331V47.1359H180.894V46.5589C180.916 46.4215 180.971 46.3528 181.06 46.3528H181.358V48.5371H180.894V47.6304H180.331V48.5371H179.867V46.3528ZM192.161 47.1357V47.6302H192.724V47.3417C192.724 47.2044 192.669 47.1357 192.558 47.1357L192.161 47.1357ZM191.862 48.8254L192.889 48.8253C192.978 48.8528 193.022 48.9215 193.022 49.0314V49.3199H192.16V49.6908H192.956V50.1854H192.16V50.5975H193.022V51.092H191.696V49.0315C191.719 48.8941 191.774 48.8254 191.862 48.8254ZM179.867 49.32H181.192V49.526C181.192 49.7733 180.927 50.2678 180.397 51.0096C180.994 51.0096 181.292 51.0646 181.292 51.1745V51.5042H179.767V51.0921C180.165 50.5151 180.43 50.0892 180.563 49.8145H179.867V49.32ZM171.516 52.1634C171.98 52.1634 172.245 52.6031 172.311 53.4822C172.311 54.1141 171.991 54.4713 171.35 54.5537C170.82 54.3889 170.555 54.0317 170.555 53.4822C170.555 52.6031 170.875 52.1634 171.516 52.1634ZM180.331 52.2871H180.795C180.795 52.4519 181.016 53.1663 181.458 54.4301H181.06C180.95 54.4301 180.894 54.3065 180.894 54.0592H180.331C180.221 54.0592 180.165 54.1828 180.165 54.4301H179.701V54.3477C179.812 54.1004 180.022 53.4135 180.331 52.2871ZM171.052 53.0703V53.4825C171.052 53.8671 171.207 54.0594 171.516 54.0594C171.737 54.0045 171.847 53.8122 171.847 53.4825V53.0703C171.847 52.9604 171.737 52.8231 171.516 52.6582H171.35C171.284 52.6582 171.185 52.7956 171.052 53.0703ZM180.497 53.0703L180.397 53.5649H180.729C180.662 53.2352 180.585 53.0703 180.497 53.0703ZM171.35 55.131C171.704 55.131 171.969 55.3371 172.146 55.7492V56.0376H171.748C171.748 55.7629 171.593 55.6255 171.284 55.6255L171.052 56.0376V56.4085C171.052 56.8207 171.207 57.0267 171.516 57.0267C171.56 57.0267 171.693 56.8619 171.914 56.5322H172.245C172.245 57.0816 171.947 57.4113 171.35 57.5213C170.82 57.3289 170.555 56.958 170.555 56.4085C170.621 55.5568 170.886 55.131 171.35 55.131Z" fill="white"/>
</svg>
